<svg width="34" height="34" viewBox="0 0 34 34" fill="none" xmlns="http://www.w3.org/2000/svg">
<path d="M32.7503 1.27529C31.7753 0.300294 30.2003 0.300294 29.2253 1.27529L17.0003 13.4753L4.77529 1.25029C3.80029 0.275293 2.22529 0.275293 1.25029 1.25029C0.275293 2.22529 0.275293 3.80029 1.25029 4.77529L13.4753 17.0003L1.25029 29.2253C0.275293 30.2003 0.275293 31.7753 1.25029 32.7503C2.22529 33.7253 3.80029 33.7253 4.77529 32.7503L17.0003 20.5253L29.2253 32.7503C30.2003 33.7253 31.7753 33.7253 32.7503 32.7503C33.7253 31.7753 33.7253 30.2003 32.7503 29.2253L20.5253 17.0003L32.7503 4.77529C33.7003 3.82529 33.7003 2.22529 32.7503 1.27529Z" fill="white"/>
</svg>
