<svg width="275" height="275" viewBox="0 0 275 275" fill="none" xmlns="http://www.w3.org/2000/svg">
<mask id="mask0_64_168" style="mask-type:alpha" maskUnits="userSpaceOnUse" x="0" y="0" width="275" height="275">
<rect width="275" height="275" rx="137.5" fill="#D9D9D9"/>
</mask>
<g mask="url(#mask0_64_168)">
<path d="M162 178.611V197H166C205.764 197 238 229.236 238 269V278H38V269C38 229.236 70.2355 197 110 197H114V178.611C96.7626 170.422 84.3722 153.687 82.3051 133.881C76.4803 133.058 72 128.052 72 122V108C72 102.054 76.3246 97.1181 82 96.1659V90C82 59.0721 107.072 34 138 34C168.928 34 194 59.0721 194 90V96.1659C199.675 97.1181 204 102.054 204 108V122C204 128.052 199.52 133.058 193.695 133.881C191.628 153.687 179.237 170.422 162 178.611Z" fill="#D0C6AC"/>
<mask id="mask1_64_168" style="mask-type:luminance" maskUnits="userSpaceOnUse" x="38" y="34" width="200" height="244">
<path d="M162 178.611V197H166C205.764 197 238 229.236 238 269V278H38V269C38 229.236 70.2355 197 110 197H114V178.611C96.7626 170.422 84.3722 153.687 82.3051 133.881C76.4803 133.058 72 128.052 72 122V108C72 102.054 76.3246 97.1181 82 96.1659V90C82 59.0721 107.072 34 138 34C168.928 34 194 59.0721 194 90V96.1659C199.675 97.1181 204 102.054 204 108V122C204 128.052 199.52 133.058 193.695 133.881C191.628 153.687 179.237 170.422 162 178.611Z" fill="white"/>
</mask>
<g mask="url(#mask1_64_168)">
<path d="M302 34H38V314H302V34Z" fill="#EDB98A"/>
</g>
<mask id="mask2_64_168" style="mask-type:luminance" maskUnits="userSpaceOnUse" x="38" y="34" width="200" height="244">
<path d="M162 178.611V197H166C205.764 197 238 229.236 238 269V278H38V269C38 229.236 70.2355 197 110 197H114V178.611C96.7626 170.422 84.3722 153.687 82.3051 133.881C76.4803 133.058 72 128.052 72 122V108C72 102.054 76.3246 97.1181 82 96.1659V90C82 59.0721 107.072 34 138 34C168.928 34 194 59.0721 194 90V96.1659C199.675 97.1181 204 102.054 204 108V122C204 128.052 199.52 133.058 193.695 133.881C191.628 153.687 179.237 170.422 162 178.611Z" fill="white"/>
</mask>
<g mask="url(#mask2_64_168)">
<path fill-rule="evenodd" clip-rule="evenodd" d="M194 113V136C194 166.928 168.928 192 138 192C107.072 192 82 166.928 82 136V113V128C82 158.928 107.072 184 138 184C168.928 184 194 158.928 194 128V113Z" fill="black" fill-opacity="0.1"/>
</g>
<path fill-rule="evenodd" clip-rule="evenodd" d="M114 181.071C96.0813 183.076 82.2798 188.552 82.0042 202.645C56.1464 213.568 38 239.165 38 268.999V278H238V268.999C238 239.165 219.854 213.568 193.996 202.645C193.72 188.552 179.919 183.076 162 181.071V200C162 213.255 151.255 224 138 224C124.745 224 114 213.255 114 200V181.071Z" fill="#B7C1DB"/>
<mask id="mask3_64_168" style="mask-type:luminance" maskUnits="userSpaceOnUse" x="38" y="181" width="200" height="97">
<path fill-rule="evenodd" clip-rule="evenodd" d="M114 181.071C96.0813 183.076 82.2798 188.552 82.0042 202.645C56.1464 213.568 38 239.165 38 268.999V278H238V268.999C238 239.165 219.854 213.568 193.996 202.645C193.72 188.552 179.919 183.076 162 181.071V200C162 213.255 151.255 224 138 224C124.745 224 114 213.255 114 200V181.071Z" fill="white"/>
</mask>
<g mask="url(#mask3_64_168)">
<path d="M270 168H6V278H270V168Z" fill="#3C4F5C"/>
</g>
<mask id="mask4_64_168" style="mask-type:luminance" maskUnits="userSpaceOnUse" x="38" y="181" width="200" height="97">
<path fill-rule="evenodd" clip-rule="evenodd" d="M114 181.071C96.0813 183.076 82.2798 188.552 82.0042 202.645C56.1464 213.568 38 239.165 38 268.999V278H238V268.999C238 239.165 219.854 213.568 193.996 202.645C193.72 188.552 179.919 183.076 162 181.071V200C162 213.255 151.255 224 138 224C124.745 224 114 213.255 114 200V181.071Z" fill="white"/>
</mask>
<g mask="url(#mask4_64_168)">
<path fill-rule="evenodd" clip-rule="evenodd" d="M108 229.739V278H101V226.15C103.204 227.46 105.547 228.661 108 229.739ZM175 226.15V266.5C175 268.433 173.433 270 171.5 270C169.567 270 168 268.433 168 266.5V229.739C170.453 228.661 172.796 227.46 175 226.15Z" fill="#F4F4F4"/>
</g>
<mask id="mask5_64_168" style="mask-type:luminance" maskUnits="userSpaceOnUse" x="38" y="181" width="200" height="97">
<path fill-rule="evenodd" clip-rule="evenodd" d="M114 181.071C96.0813 183.076 82.2798 188.552 82.0042 202.645C56.1464 213.568 38 239.165 38 268.999V278H238V268.999C238 239.165 219.854 213.568 193.996 202.645C193.72 188.552 179.919 183.076 162 181.071V200C162 213.255 151.255 224 138 224C124.745 224 114 213.255 114 200V181.071Z" fill="white"/>
</mask>
<g mask="url(#mask5_64_168)">
<path fill-rule="evenodd" clip-rule="evenodd" d="M96.9601 180.724C81.9093 183.571 71.5 189.243 71.5 200.307C71.5 220.02 104.538 236 138 236C171.462 236 204.5 220.02 204.5 200.307C204.5 189.243 194.091 183.571 179.04 180.724C188.125 184.074 194 189.706 194 199.077C194 219.469 166.179 236 138 236C109.821 236 82 219.469 82 199.077C82 189.706 87.8751 184.074 96.9601 180.724Z" fill="black" fill-opacity="0.16"/>
</g>
<path fill-rule="evenodd" clip-rule="evenodd" d="M119.118 147.128C120.175 156.62 128.226 164 138 164C147.804 164 155.874 156.574 156.892 147.04C156.973 146.273 156.117 145 155.043 145C140.149 145 128.738 145 121.087 145C120.006 145 119.012 146.178 119.118 147.128Z" fill="black" fill-opacity="0.7"/>
<mask id="mask6_64_168" style="mask-type:luminance" maskUnits="userSpaceOnUse" x="119" y="145" width="38" height="19">
<path fill-rule="evenodd" clip-rule="evenodd" d="M119.118 147.128C120.175 156.62 128.226 164 138 164C147.804 164 155.874 156.574 156.892 147.04C156.973 146.273 156.117 145 155.043 145C140.149 145 128.738 145 121.087 145C120.006 145 119.012 146.178 119.118 147.128Z" fill="white"/>
</mask>
<g mask="url(#mask6_64_168)">
<path d="M149 134H128C125.239 134 123 136.239 123 139V145C123 147.761 125.239 150 128 150H149C151.761 150 154 147.761 154 145V139C154 136.239 151.761 134 149 134Z" fill="white"/>
</g>
<mask id="mask7_64_168" style="mask-type:luminance" maskUnits="userSpaceOnUse" x="119" y="145" width="38" height="19">
<path fill-rule="evenodd" clip-rule="evenodd" d="M119.118 147.128C120.175 156.62 128.226 164 138 164C147.804 164 155.874 156.574 156.892 147.04C156.973 146.273 156.117 145 155.043 145C140.149 145 128.738 145 121.087 145C120.006 145 119.012 146.178 119.118 147.128Z" fill="white"/>
</mask>
<g mask="url(#mask7_64_168)">
<path d="M133 178C139.075 178 144 173.075 144 167C144 160.925 139.075 156 133 156C126.925 156 122 160.925 122 167C122 173.075 126.925 178 133 178Z" fill="#FF4F6D"/>
<path d="M143 178C149.075 178 154 173.075 154 167C154 160.925 149.075 156 143 156C136.925 156 132 160.925 132 167C132 173.075 136.925 178 143 178Z" fill="#FF4F6D"/>
</g>
<path fill-rule="evenodd" clip-rule="evenodd" d="M126 128C126 132.418 131.373 136 138 136C144.627 136 150 132.418 150 128" fill="black" fill-opacity="0.16"/>
<path d="M112 116C115.314 116 118 113.314 118 110C118 106.686 115.314 104 112 104C108.686 104 106 106.686 106 110C106 113.314 108.686 116 112 116Z" fill="black" fill-opacity="0.6"/>
<path fill-rule="evenodd" clip-rule="evenodd" d="M152.61 112.955C154.187 109.037 158.149 106.105 162.971 105.768C167.775 105.432 172.094 107.766 174.209 111.404C174.837 112.485 174.119 113.456 173.282 112.832C170.69 110.901 167.126 109.831 163.274 110.101C159.543 110.362 156.253 111.83 153.962 113.988C153.124 114.777 152.148 114.101 152.61 112.955Z" fill="black" fill-opacity="0.6"/>
<path fill-rule="evenodd" clip-rule="evenodd" d="M138.997 92.8207C138.996 92.8168 138.996 92.8168 138.997 92.8207V92.8207ZM141.556 95.6255C143.448 96.7264 146.273 97.359 147.871 97.5644C154.148 98.3719 160.137 96.0304 166.257 94.8859C171.689 93.8699 177.882 92.9605 182.988 95.7949C183.118 95.867 184.149 96.4619 184.694 96.9795C185.093 97.359 185.743 97.254 185.985 96.7554C187.31 94.0292 179.583 88.1615 178.12 87.6021C171.493 85.0739 162.944 88.3066 156.323 89.6033C152.607 90.3314 148.862 90.8555 145.209 91.8941C143.899 92.2664 142.63 92.9006 141.347 93.1113C141.185 92.8873 140.985 92.7513 140.759 92.7591C139.589 92.8 137.963 96.3163 140.199 96.4357C140.898 96.473 141.329 96.123 141.556 95.6255Z" fill="black" fill-opacity="0.6"/>
<path fill-rule="evenodd" clip-rule="evenodd" d="M137.003 92.791C137.004 92.7871 137.004 92.7871 137.003 92.791V92.791ZM97.8804 87.5724C104.507 85.0442 113.056 88.277 119.677 89.5737C123.393 90.3017 127.138 90.8259 130.791 91.8645C132.26 92.282 133.678 93.0288 135.121 93.1384C135.821 93.1914 136.227 94.0411 135.755 94.5728C134.211 96.3137 130.17 97.2725 128.129 97.5347C121.852 98.3423 115.863 96.0007 109.743 94.8563C104.311 93.8403 98.1185 92.9308 93.0124 95.7653C92.8825 95.8373 91.8513 96.4323 91.3059 96.9499C90.9067 97.3294 90.257 97.2243 90.0149 96.7258C88.6901 93.9996 96.417 88.1318 97.8804 87.5724ZM136.972 91.7893C138.143 91.8302 139.735 96.2901 137.498 96.4633C135.261 96.6365 135.802 91.7485 136.972 91.7893Z" fill="black" fill-opacity="0.6"/>
<mask id="mask8_64_168" style="mask-type:luminance" maskUnits="userSpaceOnUse" x="6" y="-2" width="264" height="280">
<path d="M270 -2H6V278H270V-2Z" fill="white"/>
</mask>
<g mask="url(#mask8_64_168)">
<path fill-rule="evenodd" clip-rule="evenodd" d="M155.428 168.169C152.915 170.463 150.237 171.494 146.853 170.773C146.271 170.649 143.896 166.235 138 166.235C132.103 166.235 129.729 170.649 129.147 170.773C125.762 171.494 123.085 170.463 120.571 168.169C115.846 163.856 111.917 157.908 114.278 151.419C115.508 148.037 117.51 144.324 121.151 143.246C125.038 142.096 130.497 143.244 134.415 142.458C135.684 142.204 137.071 141.751 138 141C138.929 141.751 140.316 142.204 141.585 142.458C145.503 143.244 150.961 142.096 154.849 143.246C158.49 144.324 160.491 148.037 161.722 151.419C164.083 157.908 160.154 163.856 155.428 168.169ZM194.081 96C190.671 104.4 191.988 114.858 191.357 123.676C190.844 130.843 189.337 141.586 182.973 146.215C179.718 148.582 173.794 152.56 169.542 151.45C166.615 150.686 166.302 142.29 162.455 139.147C158.092 135.582 152.643 134.016 147.149 134.258C144.779 134.362 139.984 134.337 138 136.16C136.016 134.337 131.222 134.362 128.851 134.258C123.357 134.016 117.908 135.582 113.545 139.147C109.698 142.29 109.386 150.686 106.458 151.45C102.206 152.56 96.2818 148.582 93.027 146.215C86.6624 141.586 85.1562 130.843 84.6429 123.676C84.0121 114.858 85.3292 104.4 81.9188 96C80.2598 96 81.354 112.129 81.354 112.129V132.485C81.3857 147.773 90.9351 170.655 112.108 179.393C117.286 181.53 129.015 185 138 185C146.985 185 158.714 181.86 163.892 179.723C185.065 170.986 194.614 147.773 194.646 132.485V112.129C194.646 112.129 195.74 96 194.081 96Z" fill="#331B0C"/>
<mask id="mask9_64_168" style="mask-type:luminance" maskUnits="userSpaceOnUse" x="81" y="96" width="114" height="89">
<path fill-rule="evenodd" clip-rule="evenodd" d="M155.428 168.169C152.915 170.463 150.237 171.494 146.853 170.773C146.271 170.649 143.896 166.235 138 166.235C132.103 166.235 129.729 170.649 129.147 170.773C125.762 171.494 123.085 170.463 120.571 168.169C115.846 163.856 111.917 157.908 114.278 151.419C115.508 148.037 117.51 144.324 121.151 143.246C125.038 142.096 130.497 143.244 134.415 142.458C135.684 142.204 137.071 141.751 138 141C138.929 141.751 140.316 142.204 141.585 142.458C145.503 143.244 150.961 142.096 154.849 143.246C158.49 144.324 160.491 148.037 161.722 151.419C164.083 157.908 160.154 163.856 155.428 168.169ZM194.081 96C190.671 104.4 191.988 114.858 191.357 123.676C190.844 130.843 189.337 141.586 182.973 146.215C179.718 148.582 173.794 152.56 169.542 151.45C166.615 150.686 166.302 142.29 162.455 139.147C158.092 135.582 152.643 134.016 147.149 134.258C144.779 134.362 139.984 134.337 138 136.16C136.016 134.337 131.222 134.362 128.851 134.258C123.357 134.016 117.908 135.582 113.545 139.147C109.698 142.29 109.386 150.686 106.458 151.45C102.206 152.56 96.2818 148.582 93.027 146.215C86.6624 141.586 85.1562 130.843 84.6429 123.676C84.0121 114.858 85.3292 104.4 81.9188 96C80.2598 96 81.354 112.129 81.354 112.129V132.485C81.3857 147.773 90.9351 170.655 112.108 179.393C117.286 181.53 129.015 185 138 185C146.985 185 158.714 181.86 163.892 179.723C185.065 170.986 194.614 147.773 194.646 132.485V112.129C194.646 112.129 195.74 96 194.081 96Z" fill="white"/>
</mask>
<g mask="url(#mask9_64_168)">
<path d="M286 70H22V314H286V70Z" fill="#2C1B18"/>
</g>
<path fill-rule="evenodd" clip-rule="evenodd" d="M188.68 36.9488C194.086 31.9986 195.387 21.9615 192.318 15.4493C188.549 7.45385 180.901 6.45218 173.572 9.96867C166.664 13.2836 160.515 14.3879 152.95 12.7817C145.692 11.2407 138.806 8.52262 131.303 8.07625C118.978 7.34292 107.003 11.9146 98.6031 21.1293C97.0004 22.8872 95.709 24.8972 94.4883 26.9344C93.5115 28.5644 92.4105 30.3134 91.995 32.1922C91.7974 33.0856 92.1653 35.2899 91.7204 36.0219C91.2391 36.8123 89.4245 37.5373 88.651 38.1239C87.0843 39.3125 85.7268 40.654 84.4714 42.1711C81.8053 45.3927 80.3377 48.7577 79.1035 52.7428C75.0005 65.9878 74.6528 81.7413 79.9569 94.7468C80.6639 96.4811 82.8551 100.099 84.1432 96.3848C84.3977 95.6508 83.8087 93.1908 83.81 92.4502C83.8146 89.7301 85.3161 71.7214 91.8571 61.633C93.9862 58.3492 103.83 46.0522 105.841 45.9536C106.906 47.6464 117.721 58.4625 145.783 57.1949C158.445 56.623 168.183 50.9341 170.521 48.4681C171.549 54.0009 183.513 62.284 185.336 65.6922C190.603 75.5377 191.771 95.9957 193.781 95.9573C195.791 95.919 197.234 90.7198 197.648 89.7271C200.72 82.3517 201.243 73.0948 200.915 65.1684C200.488 54.9664 196.277 43.9419 188.68 36.9488Z" fill="#28354B"/>
<mask id="mask10_64_168" style="mask-type:luminance" maskUnits="userSpaceOnUse" x="76" y="8" width="125" height="90">
<path fill-rule="evenodd" clip-rule="evenodd" d="M188.68 36.9488C194.086 31.9986 195.387 21.9615 192.318 15.4493C188.549 7.45385 180.901 6.45218 173.572 9.96867C166.664 13.2836 160.515 14.3879 152.95 12.7817C145.692 11.2407 138.806 8.52262 131.303 8.07625C118.978 7.34292 107.003 11.9146 98.6031 21.1293C97.0004 22.8872 95.709 24.8972 94.4883 26.9344C93.5115 28.5644 92.4105 30.3134 91.995 32.1922C91.7974 33.0856 92.1653 35.2899 91.7204 36.0219C91.2391 36.8123 89.4245 37.5373 88.651 38.1239C87.0843 39.3125 85.7268 40.654 84.4714 42.1711C81.8053 45.3927 80.3377 48.7577 79.1035 52.7428C75.0005 65.9878 74.6528 81.7413 79.9569 94.7468C80.6639 96.4811 82.8551 100.099 84.1432 96.3848C84.3977 95.6508 83.8087 93.1908 83.81 92.4502C83.8146 89.7301 85.3161 71.7214 91.8571 61.633C93.9862 58.3492 103.83 46.0522 105.841 45.9536C106.906 47.6464 117.721 58.4625 145.783 57.1949C158.445 56.623 168.183 50.9341 170.521 48.4681C171.549 54.0009 183.513 62.284 185.336 65.6922C190.603 75.5377 191.771 95.9957 193.781 95.9573C195.791 95.919 197.234 90.7198 197.648 89.7271C200.72 82.3517 201.243 73.0948 200.915 65.1684C200.488 54.9664 196.277 43.9419 188.68 36.9488Z" fill="white"/>
</mask>
<g mask="url(#mask10_64_168)">
<path d="M269 -2H5V278H269V-2Z" fill="#2C1B18"/>
</g>
<g filter="url(#filter0_d_64_168)">
<path d="M107 131H104.242C90.3147 131 82 123.336 82 110.5C82 100.127 83.817 90 105.53 90H108.47C130.183 90 132 100.127 132 110.5C132 122.569 121.721 131 107 131ZM105.385 96C86 96 86 102.841 86 111.502C86 118.572 89.1163 127 103.971 127H107C119.365 127 128 120.627 128 111.502C128 102.841 128 96 108.615 96H105.385Z" fill="#252C2F"/>
<path d="M169 131H166.242C152.315 131 144 123.336 144 110.5C144 100.127 145.817 90 167.53 90H170.47C192.183 90 194 100.127 194 110.5C194 122.569 183.721 131 169 131ZM167.385 96C148 96 148 102.841 148 111.502C148 118.572 151.119 127 165.971 127H169C181.365 127 190 120.627 190 111.502C190 102.841 190 96 170.615 96H167.385Z" fill="#252C2F"/>
<path d="M75.9545 95.7716C76.6459 95.0963 84.2095 90 105.5 90C123.351 90 127.13 91.8527 132.85 94.6519L133.269 94.8585C133.667 94.999 135.7 95.6898 138.079 95.7658C140.246 95.6728 142.1 95.0854 142.642 94.8972C149.17 91.7221 155.561 90 170.5 90C191.79 90 199.354 95.0963 200.045 95.7716C201.679 95.7716 203 97.0615 203 98.6573V101.543C203 103.139 201.679 104.429 200.045 104.429C200.045 104.429 193.144 104.429 193.144 107.315C193.144 110.2 191.182 103.139 191.182 101.543V98.7324C187.579 97.3534 181.128 94.7862 170.5 94.7862C158.658 94.7862 152.761 96.886 147.702 98.9711L147.759 99.1075L147.756 101.094L145.539 106.444L142.8 105.361C142.556 105.264 142.028 105.09 141.296 104.91C139.256 104.407 137.159 104.254 135.304 104.634C134.624 104.774 133.992 104.984 133.413 105.267L130.77 106.558L128.127 101.396L128.244 99.1018L128.325 98.9068C123.962 96.8739 119.939 94.7862 105.5 94.7862C94.8721 94.7862 88.4221 97.3524 84.8182 98.7315V101.543C84.8182 103.139 81.8636 110.2 81.8636 107.315C81.8636 104.429 75.9545 104.429 75.9545 104.429C74.3236 104.429 73 103.139 73 101.543V98.6573C73 97.0615 74.3236 95.7716 75.9545 95.7716Z" fill="#252C2F"/>
</g>
</g>
</g>
<defs>
<filter id="filter0_d_64_168" x="73" y="90" width="130" height="43" filterUnits="userSpaceOnUse" color-interpolation-filters="sRGB">
<feFlood flood-opacity="0" result="BackgroundImageFix"/>
<feColorMatrix in="SourceAlpha" type="matrix" values="0 0 0 0 0 0 0 0 0 0 0 0 0 0 0 0 0 0 127 0" result="hardAlpha"/>
<feOffset dy="2"/>
<feColorMatrix type="matrix" values="0 0 0 0 0 0 0 0 0 0 0 0 0 0 0 0 0 0 0.2 0"/>
<feBlend mode="normal" in2="BackgroundImageFix" result="effect1_dropShadow_64_168"/>
<feBlend mode="normal" in="SourceGraphic" in2="effect1_dropShadow_64_168" result="shape"/>
</filter>
</defs>
</svg>
